

<svg id="el_bB81FFWUy" data-name="Layer 1" xmlns="http://www.w3.org/2000/svg" viewBox="0 0 748 90"><style>#el_djax6xgGIv{fill: #009e9e;-webkit-transform: translate(-4.56px, -4.32px);transform: translate(-4.56px, -4.32px);}#el_gWq3doQlPZ{fill: #009e9e;-webkit-transform: translate(-4.56px, -4.32px);transform: translate(-4.56px, -4.32px);}#el_UoJjGawqFA{fill: #009e9e;-webkit-transform: translate(-4.56px, -4.32px);transform: translate(-4.56px, -4.32px);}#el_EbWeWO0Cat{fill: #009e9e;-webkit-transform: translate(-4.56px, -4.32px);transform: translate(-4.56px, -4.32px);}#el_jWrCur7paR{fill: #009e9e;-webkit-transform: translate(-4.56px, -4.32px);transform: translate(-4.56px, -4.32px);}#el_jF46RDSz-9{fill: #009e9e;-webkit-transform: translate(-4.56px, -4.32px);transform: translate(-4.56px, -4.32px);}#el_qtv0f5weLW{fill: #009e9e;-webkit-transform: translate(-4.56px, -4.32px);transform: translate(-4.56px, -4.32px);}#el_c0JZkY9kvh{fill: #009e9e;-webkit-transform: translate(-4.56px, -4.32px);transform: translate(-4.56px, -4.32px);}#el__ATSGy4-jE{fill: #009e9e;-webkit-transform: translate(-4.56px, -4.32px);transform: translate(-4.56px, -4.32px);}#el_o4r0zdPedk{fill: #009e9e;-webkit-transform: translate(-4.56px, -4.32px);transform: translate(-4.56px, -4.32px);}#el_RhbZS_teDt{fill: #009e9e;-webkit-transform: translate(-4.56px, -4.32px);transform: translate(-4.56px, -4.32px);}#el_zjukPYILYA{fill: #009e9e;-webkit-transform: translate(-4.56px, -4.32px);transform: translate(-4.56px, -4.32px);}#el_zyRvi7bfli{-webkit-transform: translate(-4.56px, -4.32px);transform: translate(-4.56px, -4.32px);}#el_mlt4m6zgd4{-webkit-transform: translate(-4.56px, -4.32px);transform: translate(-4.56px, -4.32px);}#el_lNK7Cagiym{-webkit-transform: translate(-4.56px, -4.32px);transform: translate(-4.56px, -4.32px);}</style><defs/><title>ProductivityApp</title><path d="M25.45,5.44q9.68,0,15.42,6.1Q46.2,17.36,46.2,26.4V39.16A20.43,20.43,0,0,1,40.14,54a19.82,19.82,0,0,1-14.69,6.17H17.81V93.28H4.56V5.44Zm7.92,21.17a7.56,7.56,0,0,0-2.07-5.54A7.37,7.37,0,0,0,25.8,19h-8V47.08h8a7.26,7.26,0,0,0,5.36-2.24,7.41,7.41,0,0,0,2.21-5.4Z" id="el_djax6xgGIv"/><path d="M77.68,5.44q11.07,0,16.26,6.1Q98.5,16.87,98.5,26.4V39.16a20.51,20.51,0,0,1-7.08,15.77l9.81,38.35H86.9l-8-33.09H70V93.28H56.79V5.44ZM85.6,26.61Q85.6,19,78,19H70V47.08h8a7.26,7.26,0,0,0,5.36-2.24,7.45,7.45,0,0,0,2.21-5.4Z" id="el_gWq3doQlPZ"/><path d="M131.31,4.32a20.24,20.24,0,0,1,14.9,6.16,20.33,20.33,0,0,1,6.13,14.87V73.3a21,21,0,0,1-35.89,14.86,20.34,20.34,0,0,1-6.1-14.86V25.35a20.21,20.21,0,0,1,6.17-14.9A20.22,20.22,0,0,1,131.31,4.32Zm7.22,20.75A7.53,7.53,0,0,0,131,17.5a7.42,7.42,0,0,0-5.4,2.2,7.24,7.24,0,0,0-2.24,5.37V73.16a7.22,7.22,0,0,0,2.24,5.36,7.39,7.39,0,0,0,5.4,2.21,7.55,7.55,0,0,0,7.57-7.57Z" id="el_UoJjGawqFA"/><path d="M205.62,72.25a20.34,20.34,0,0,1-6.1,14.86,19.9,19.9,0,0,1-14.72,6.17H164V5.37H184.8a19.91,19.91,0,0,1,14.76,6.17,20.35,20.35,0,0,1,6.06,14.79Zm-28.39,7.92h8a7.09,7.09,0,0,0,5.33-2.28,7.48,7.48,0,0,0,2.17-5.36v-46a7.41,7.41,0,0,0-2.21-5.4,7.17,7.17,0,0,0-5.29-2.24h-8Z" id="el_EbWeWO0Cat"/><path d="M238.15,94.26a20.83,20.83,0,0,1-21-20.89V5.44h13V73.23a7.22,7.22,0,0,0,2.24,5.36,7.41,7.41,0,0,0,5.4,2.21,7.55,7.55,0,0,0,7.57-7.57V5.44h13.81V73.37A19.91,19.91,0,0,1,253,88.23,20.49,20.49,0,0,1,238.15,94.26Z" id="el_jWrCur7paR"/><path d="M291.78,94.4a20.93,20.93,0,0,1-21-21V25.49a20.25,20.25,0,0,1,6.17-14.9,20.31,20.31,0,0,1,14.86-6.13,20.1,20.1,0,0,1,14.86,6.16,20.38,20.38,0,0,1,6.1,14.87v10H299V25.21a7.65,7.65,0,0,0-7.64-7.64A7.22,7.22,0,0,0,286,19.81a7.39,7.39,0,0,0-2.21,5.4V73.3a7.55,7.55,0,0,0,7.57,7.57,7.41,7.41,0,0,0,5.4-2.21A7.26,7.26,0,0,0,299,73.3V61.17h13.74V73.44a20.95,20.95,0,0,1-21,21Z" id="el_jF46RDSz-9"/><path d="M336,18.76H321.86V5.44h41.36V18.76h-14V93.28H336Z" id="el_qtv0f5weLW"/><path d="M387.13,93.28H373.88V5.44h13.25Z" id="el_c0JZkY9kvh"/><path d="M413.91,93.28,398.2,5.44h13.89l11,68.47,11.1-68.47h13.9l-16,87.84Z" id="el__ATSGy4-jE"/><path d="M472.45,93.28H459.2V5.44h13.25Z" id="el_o4r0zdPedk"/><path d="M497.19,18.76H483.1V5.44h41.37V18.76h-14V93.28H497.19Z" id="el_RhbZS_teDt"/><path d="M551.32,56.48,533.58,5.37h14.58L558,36.92l9.74-31.55h14.65l-17.8,51.11v36.8H551.32Z" id="el_zjukPYILYA"/><path d="M617.62,73.09,614.4,93.28H600.6L615.53,5.44h18.23l14.72,87.84H634.55l-3.1-20.19Zm7-47.53-4.91,34.63h9.81Z" id="el_zyRvi7bfli"/><path d="M680.52,5.44q9.68,0,15.43,6.1,5.32,5.82,5.32,14.86V39.16A20.43,20.43,0,0,1,695.21,54a19.81,19.81,0,0,1-14.69,6.17h-7.64V93.28H659.63V5.44Zm7.92,21.17a7.59,7.59,0,0,0-2.06-5.54,7.39,7.39,0,0,0-5.51-2.1h-8V47.08h8a7.28,7.28,0,0,0,5.37-2.24,7.44,7.44,0,0,0,2.2-5.4Z" id="el_mlt4m6zgd4"/><path d="M732.75,5.44q9.68,0,15.42,6.1,5.33,5.82,5.33,14.86V39.16A20.43,20.43,0,0,1,747.44,54a19.82,19.82,0,0,1-14.69,6.17h-7.64V93.28H711.86V5.44Zm7.92,21.17a7.56,7.56,0,0,0-2.07-5.54,7.37,7.37,0,0,0-5.5-2.1h-8V47.08h8a7.26,7.26,0,0,0,5.36-2.24,7.41,7.41,0,0,0,2.21-5.4Z" id="el_lNK7Cagiym"/></svg>
